<svg width="62" height="62" viewBox="0 0 62 62" fill="none" xmlns="http://www.w3.org/2000/svg">
<path d="M43.919 0.292603H18.0807C6.85734 0.292603 0.166504 6.98344 0.166504 18.2068V44.0143C0.166504 55.2684 6.85734 61.9593 18.0807 61.9593H43.8882C55.1115 61.9593 61.8023 55.2684 61.8023 44.0451V18.2068C61.8332 6.98344 55.1423 0.292603 43.919 0.292603ZM41.3598 38.2176C42.254 39.1118 42.254 40.5918 41.3598 41.4859C40.8973 41.9484 40.3115 42.1643 39.7257 42.1643C39.1398 42.1643 38.554 41.9484 38.0915 41.4859L30.9998 34.3943L23.9082 41.4859C23.4457 41.9484 22.8598 42.1643 22.274 42.1643C21.6882 42.1643 21.1023 41.9484 20.6398 41.4859C19.7457 40.5918 19.7457 39.1118 20.6398 38.2176L27.7315 31.1259L20.6398 24.0343C19.7457 23.1401 19.7457 21.6601 20.6398 20.7659C21.534 19.8718 23.014 19.8718 23.9082 20.7659L30.9998 27.8576L38.0915 20.7659C38.9857 19.8718 40.4657 19.8718 41.3598 20.7659C42.254 21.6601 42.254 23.1401 41.3598 24.0343L34.2682 31.1259L41.3598 38.2176Z" fill="#FF280B"/>
</svg>
