<svg width="42" height="41" viewBox="0 0 42 41" fill="none" xmlns="http://www.w3.org/2000/svg">
<rect y="0.692078" width="41.3954" height="39.3761" rx="11.1061" fill="#DA1196" fill-opacity="0.2"/>
<path d="M28.7353 17.312C28.0589 16.5649 27.0391 16.1307 25.6256 15.9793V15.212C25.6256 13.8287 25.04 12.496 24.0102 11.5671C22.9703 10.6181 21.6173 10.1738 20.2139 10.3051C17.8009 10.5373 15.7715 12.8696 15.7715 15.3937V15.9793C14.358 16.1307 13.3383 16.5649 12.6618 17.312C11.6824 18.4024 11.7127 19.8563 11.8238 20.866L12.5305 26.4897C12.7426 28.4585 13.5402 30.4778 17.8816 30.4778H23.5155C27.8569 30.4778 28.6545 28.4585 28.8666 26.4998L29.5733 20.8559C29.6844 19.8563 29.7046 18.4024 28.7353 17.312ZM20.3553 11.7085C21.3649 11.6176 22.3241 11.9306 23.0712 12.6071C23.8083 13.2734 24.2222 14.2225 24.2222 15.212V15.9187H17.1749V15.3937C17.1749 13.5965 18.6591 11.87 20.3553 11.7085ZM17.084 21.5424H17.0739C16.5186 21.5424 16.0643 21.0881 16.0643 20.5328C16.0643 19.9775 16.5186 19.5231 17.0739 19.5231C17.6393 19.5231 18.0937 19.9775 18.0937 20.5328C18.0937 21.0881 17.6393 21.5424 17.084 21.5424ZM24.1515 21.5424H24.1414C23.5861 21.5424 23.1318 21.0881 23.1318 20.5328C23.1318 19.9775 23.5861 19.5231 24.1414 19.5231C24.7068 19.5231 25.1612 19.9775 25.1612 20.5328C25.1612 21.0881 24.7068 21.5424 24.1515 21.5424Z" fill="#DA1196"/>
</svg>
