<svg width="73" height="73" viewBox="0 0 73 73" fill="none" xmlns="http://www.w3.org/2000/svg">
<g filter="url(#filter0_d_14_1236)">
<rect x="16.5" y="12.5" width="40" height="40" rx="8" fill="#783EFD" shape-rendering="crispEdges"/>
<path d="M26.5 35.79V26.21C26.5 24.88 27.27 24.56 28.21 25.5L30.8 28.09C31.19 28.48 31.83 28.48 32.21 28.09L35.79 24.5C36.18 24.11 36.82 24.11 37.2 24.5L40.79 28.09C41.18 28.48 41.82 28.48 42.2 28.09L44.79 25.5C45.73 24.56 46.5 24.88 46.5 26.21V35.8C46.5 38.8 44.5 40.8 41.5 40.8H31.5C28.74 40.79 26.5 38.55 26.5 35.79Z" fill="#F4FFFC"/>
</g>
<defs>
<filter id="filter0_d_14_1236" x="0.5" y="0.5" width="72" height="72" filterUnits="userSpaceOnUse" color-interpolation-filters="sRGB">
<feFlood flood-opacity="0" result="BackgroundImageFix"/>
<feColorMatrix in="SourceAlpha" type="matrix" values="0 0 0 0 0 0 0 0 0 0 0 0 0 0 0 0 0 0 127 0" result="hardAlpha"/>
<feOffset dy="4"/>
<feGaussianBlur stdDeviation="8"/>
<feComposite in2="hardAlpha" operator="out"/>
<feColorMatrix type="matrix" values="0 0 0 0 0.623529 0 0 0 0 0.596078 0 0 0 0 0.996078 0 0 0 0.64 0"/>
<feBlend mode="normal" in2="BackgroundImageFix" result="effect1_dropShadow_14_1236"/>
<feBlend mode="normal" in="SourceGraphic" in2="effect1_dropShadow_14_1236" result="shape"/>
</filter>
</defs>
</svg>
