<svg width="42" height="41" viewBox="0 0 42 41" fill="none" xmlns="http://www.w3.org/2000/svg">
<rect y="0.692078" width="41.3954" height="39.3761" rx="11.1061" fill="#39DA11" fill-opacity="0.2"/>
<path d="M25.559 10.2804H15.8261C13.6856 10.2804 11.9288 12.0372 11.9288 14.1776V28.4035C11.9288 30.2209 13.2313 30.9882 14.8265 30.1098L19.7536 27.3737C20.2786 27.0809 21.1267 27.0809 21.6416 27.3737L26.5687 30.1098C28.1639 30.9983 29.4663 30.231 29.4663 28.4035V14.1776C29.4562 12.0372 27.7096 10.2804 25.559 10.2804ZM24.3474 17.4691L20.3089 21.5077C20.1574 21.6591 19.9656 21.7298 19.7738 21.7298C19.5819 21.7298 19.3901 21.6591 19.2387 21.5077L17.7242 19.9932C17.4314 19.7004 17.4314 19.2158 17.7242 18.923C18.017 18.6302 18.5016 18.6302 18.7944 18.923L19.7738 19.9023L23.2772 16.3989C23.57 16.1061 24.0547 16.1061 24.3474 16.3989C24.6402 16.6917 24.6402 17.1763 24.3474 17.4691Z" fill="#39DA11"/>
</svg>
