<svg width="22" height="24" viewBox="0 0 22 24" fill="none" xmlns="http://www.w3.org/2000/svg">
<path opacity="0.3" d="M20.05 21.51H2.95C2.38 21.51 2 21.1322 2 20.5656V5.45445C2 4.88779 2.38 4.51001 2.95 4.51001H20.05C20.62 4.51001 21 4.88779 21 5.45445V20.5656C21 21.1322 20.62 21.51 20.05 21.51Z" fill="#4C49ED"/>
<path d="M5.92857 6.51001C5.37143 6.51001 5 6.11001 5 5.51001V3.51001C5 2.91001 5.37143 2.51001 5.92857 2.51001C6.48571 2.51001 6.85714 2.91001 6.85714 3.51001V5.51001C6.85714 6.11001 6.48571 6.51001 5.92857 6.51001ZM10.5714 5.51001V3.51001C10.5714 2.91001 10.2 2.51001 9.64286 2.51001C9.08571 2.51001 8.71429 2.91001 8.71429 3.51001V5.51001C8.71429 6.11001 9.08571 6.51001 9.64286 6.51001C10.2 6.51001 10.5714 6.11001 10.5714 5.51001ZM14.2857 5.51001V3.51001C14.2857 2.91001 13.9143 2.51001 13.3571 2.51001C12.8 2.51001 12.4286 2.91001 12.4286 3.51001V5.51001C12.4286 6.11001 12.8 6.51001 13.3571 6.51001C13.9143 6.51001 14.2857 6.11001 14.2857 5.51001ZM18 5.51001V3.51001C18 2.91001 17.6286 2.51001 17.0714 2.51001C16.5143 2.51001 16.1429 2.91001 16.1429 3.51001V5.51001C16.1429 6.11001 16.5143 6.51001 17.0714 6.51001C17.6286 6.51001 18 6.11001 18 5.51001Z" fill="#4C49ED"/>
<path d="M8.47706 13.0493C8.84403 13.0493 9.11926 12.9482 9.30275 12.7459C9.48623 12.5437 9.66972 12.2403 9.66972 11.8358C9.66972 11.5324 9.57798 11.2291 9.39449 11.0268C9.211 10.8246 8.93577 10.7235 8.66054 10.7235C8.47706 10.7235 8.29356 10.7235 8.11008 10.8246C7.92659 10.9257 7.83485 11.0268 7.74311 11.128C7.65137 11.2291 7.55963 11.3302 7.46788 11.5325C7.37614 11.7347 7.2844 11.8358 7.2844 12.0381C7.2844 12.1392 7.19265 12.1392 7.10091 12.2403C7.00917 12.3414 6.91741 12.3414 6.73393 12.3414C6.55044 12.3414 6.45871 12.2403 6.36696 12.1392C6.27522 12.0381 6.18348 11.8358 6.18348 11.6336C6.18348 11.4313 6.27522 11.2291 6.36696 11.0268C6.45871 10.8246 6.64219 10.6223 6.82568 10.4201C7.00917 10.2178 7.28439 10.0156 7.65136 9.91447C8.01833 9.81337 8.29358 9.71225 8.7523 9.71225C9.11927 9.71225 9.3945 9.81337 9.66972 9.91447C9.94495 10.0156 10.2202 10.2178 10.4037 10.319C10.5872 10.4201 10.7706 10.7235 10.8624 11.0268C10.9541 11.3302 11.0459 11.5324 11.0459 11.8358C11.0459 12.2403 10.9541 12.5437 10.7706 12.8471C10.5872 13.1504 10.4037 13.4538 10.1284 13.6561C10.4037 13.8583 10.6789 14.0606 10.8624 14.2628C11.0459 14.465 11.2294 14.6673 11.3211 14.9707C11.4128 15.274 11.5046 15.4763 11.5046 15.7797C11.5046 16.1842 11.4128 16.4875 11.3211 16.7909C11.2294 17.0943 10.9541 17.3976 10.7706 17.701C10.5872 18.0044 10.2202 18.2066 9.85321 18.3078C9.48623 18.4089 9.11926 18.51 8.66054 18.51C8.20183 18.51 7.83485 18.4089 7.46788 18.2066C7.10091 18.0044 6.82568 17.8021 6.64219 17.5999C6.45871 17.3976 6.27522 17.0943 6.18348 16.7909C6.09173 16.4875 6 16.2853 6 16.083C6 15.8808 6.09173 15.6785 6.18348 15.5774C6.27522 15.4763 6.45871 15.3752 6.64219 15.3752C6.73394 15.3752 6.82569 15.3752 6.91743 15.4763C7.00918 15.5774 7.10091 15.5774 7.10091 15.6785C7.2844 16.1842 7.46788 16.5887 7.74311 16.892C8.01834 17.1954 8.29357 17.2965 8.66054 17.2965C8.84403 17.2965 9.11926 17.1954 9.30275 17.0943C9.48623 16.9931 9.66972 16.7909 9.85321 16.5887C10.0367 16.3864 10.0367 16.083 10.0367 15.7797C10.0367 15.274 9.94495 14.9707 9.66972 14.6673C9.3945 14.3639 9.11927 14.2628 8.7523 14.2628C8.66055 14.2628 8.5688 14.2628 8.38531 14.2628C8.20183 14.2628 8.11008 14.2628 8.11008 14.2628C7.92659 14.2628 7.7431 14.1617 7.65136 14.0606C7.55962 13.9594 7.46788 13.7572 7.46788 13.6561C7.46788 13.4538 7.55962 13.3527 7.65136 13.1504C7.7431 12.9482 7.9266 12.9482 8.20183 12.9482H8.47706V13.0493ZM14.4404 17.4988V12.1392C13.5229 12.9482 12.8807 13.2516 12.6055 13.2516C12.422 13.2516 12.3303 13.1504 12.2385 13.0493C12.1468 12.9482 12.055 12.7459 12.055 12.5437C12.055 12.3414 12.1468 12.2403 12.2385 12.1392C12.3303 12.0381 12.5138 11.9369 12.8807 11.7347C13.3394 11.5325 13.7064 11.2291 13.8899 11.0268C14.0734 10.8246 14.3486 10.5212 14.6239 10.2178C14.8991 9.91447 14.9908 9.71225 14.9908 9.61112C14.9908 9.51 15.1743 9.51001 15.3578 9.51001C15.5413 9.51001 15.7248 9.61112 15.8165 9.71225C15.9083 9.81337 16 10.1167 16 10.4201V17.1954C16 18.0044 15.7248 18.4089 15.2661 18.4089C15.0826 18.4089 14.8991 18.3078 14.7156 18.2066C14.5321 18.1055 14.4404 17.8021 14.4404 17.4988Z" fill="#4C49ED"/>
</svg>
