<svg width="42" height="41" viewBox="0 0 42 41" fill="none" xmlns="http://www.w3.org/2000/svg">
<rect y="0.692078" width="41.3954" height="39.3761" rx="11.1061" fill="#E4E3FF"/>
<path d="M21.6213 25.3341H22.422C23.2226 25.3341 23.8878 24.6196 23.8878 23.7574C23.8878 22.6858 23.5059 22.4764 22.8777 22.2547L21.6337 21.8235V25.3341H21.6213Z" fill="#4C49ED"/>
<path d="M20.6606 8.06249C13.8613 8.08713 8.35533 13.6177 8.37997 20.417C8.4046 27.2164 13.9352 32.7223 20.7345 32.6977C27.5338 32.6731 33.0398 27.1425 33.0152 20.3431C32.9905 13.5438 27.4599 8.05017 20.6606 8.06249ZM23.4813 20.5033C24.4421 20.8358 25.7355 21.5503 25.7355 23.7551C25.7355 25.652 24.245 27.1794 22.422 27.1794H21.6214V27.8938C21.6214 28.3988 21.2026 28.8176 20.6976 28.8176C20.1925 28.8176 19.7737 28.3988 19.7737 27.8938V27.1794H19.3303C17.3102 27.1794 15.672 25.4796 15.672 23.3856C15.672 22.8806 16.0908 22.4618 16.5958 22.4618C17.1008 22.4618 17.5196 22.8806 17.5196 23.3856C17.5196 24.4572 18.3326 25.3318 19.3303 25.3318H19.7737V21.1684L17.9138 20.5033C16.953 20.1707 15.6597 19.4563 15.6597 17.2514C15.6597 15.3545 17.1501 13.8271 18.9731 13.8271H19.7737V13.1127C19.7737 12.6077 20.1925 12.1889 20.6976 12.1889C21.2026 12.1889 21.6214 12.6077 21.6214 13.1127V13.8271H22.0648C24.0849 13.8271 25.7231 15.527 25.7231 17.6209C25.7231 18.126 25.3043 18.5448 24.7993 18.5448C24.2943 18.5448 23.8755 18.126 23.8755 17.6209C23.8755 16.5493 23.0625 15.6748 22.0648 15.6748H21.6214V19.8381L23.4813 20.5033Z" fill="#4C49ED"/>
<path d="M17.5219 17.2633C17.5219 18.3349 17.9037 18.5443 18.5319 18.7661L19.776 19.1972V15.6743H18.9753C18.1747 15.6743 17.5219 16.3888 17.5219 17.2633Z" fill="#4C49ED"/>
</svg>
