<svg width="74" height="73" viewBox="0 0 74 73" fill="none" xmlns="http://www.w3.org/2000/svg">
<g filter="url(#filter0_d_14_1243)">
<rect x="16.8151" y="12.1824" width="40.6354" height="40.6353" rx="8" fill="#00DEA3" shape-rendering="crispEdges"/>
<path d="M38.0565 37.4539H38.8572C39.6578 37.4539 40.323 36.7395 40.323 35.8773C40.323 34.8057 39.9411 34.5963 39.3129 34.3745L38.0688 33.9434V37.4539H38.0565Z" fill="white"/>
<path d="M37.0958 20.1824C30.2965 20.207 24.7905 25.7376 24.8151 32.5369C24.8398 39.3362 30.3704 44.8422 37.1697 44.8176C43.969 44.7929 49.475 39.2623 49.4503 32.463C49.4257 25.6637 43.8951 20.1701 37.0958 20.1824ZM39.9165 32.6231C40.8773 32.9557 42.1706 33.6701 42.1706 35.875C42.1706 37.7719 40.6802 39.2993 38.8572 39.2993H38.0566V40.0137C38.0566 40.5187 37.6378 40.9375 37.1327 40.9375C36.6277 40.9375 36.2089 40.5187 36.2089 40.0137V39.2993H35.7655C33.7454 39.2993 32.1072 37.5995 32.1072 35.5055C32.1072 35.0004 32.526 34.5816 33.031 34.5816C33.536 34.5816 33.9548 35.0004 33.9548 35.5055C33.9548 36.5771 34.7678 37.4516 35.7655 37.4516H36.2089V33.2883L34.349 32.6231C33.3882 32.2906 32.0948 31.5761 32.0948 29.3713C32.0948 27.4744 33.5853 25.947 35.4083 25.947H36.2089V25.2326C36.2089 24.7276 36.6277 24.3088 37.1327 24.3088C37.6378 24.3088 38.0566 24.7276 38.0566 25.2326V25.947H38.5C40.5201 25.947 42.1583 27.6468 42.1583 29.7408C42.1583 30.2458 41.7395 30.6646 41.2345 30.6646C40.7295 30.6646 40.3107 30.2458 40.3107 29.7408C40.3107 28.6692 39.4977 27.7946 38.5 27.7946H38.0566V31.958L39.9165 32.6231Z" fill="white"/>
<path d="M33.957 29.3832C33.957 30.4548 34.3389 30.6642 34.9671 30.886L36.2112 31.3171V27.7942H35.4105C34.6099 27.7942 33.957 28.5087 33.957 29.3832Z" fill="white"/>
</g>
<defs>
<filter id="filter0_d_14_1243" x="0.815063" y="0.18235" width="72.6354" height="72.6353" filterUnits="userSpaceOnUse" color-interpolation-filters="sRGB">
<feFlood flood-opacity="0" result="BackgroundImageFix"/>
<feColorMatrix in="SourceAlpha" type="matrix" values="0 0 0 0 0 0 0 0 0 0 0 0 0 0 0 0 0 0 127 0" result="hardAlpha"/>
<feOffset dy="4"/>
<feGaussianBlur stdDeviation="8"/>
<feComposite in2="hardAlpha" operator="out"/>
<feColorMatrix type="matrix" values="0 0 0 0 0.501961 0 0 0 0 0.917647 0 0 0 0 1 0 0 0 0.64 0"/>
<feBlend mode="normal" in2="BackgroundImageFix" result="effect1_dropShadow_14_1243"/>
<feBlend mode="normal" in="SourceGraphic" in2="effect1_dropShadow_14_1243" result="shape"/>
</filter>
</defs>
</svg>
