<svg width="42" height="41" viewBox="0 0 42 41" fill="none" xmlns="http://www.w3.org/2000/svg">
<rect y="0.692078" width="41.3954" height="39.3761" rx="11.1061" fill="#FF9C29" fill-opacity="0.2"/>
<path d="M25.5901 31.1076C26.5659 31.1076 27.357 30.3165 27.357 29.3407C27.357 28.3649 26.5659 27.5739 25.5901 27.5739C24.6143 27.5739 23.8232 28.3649 23.8232 29.3407C23.8232 30.3165 24.6143 31.1076 25.5901 31.1076Z" fill="#FF9C29"/>
<path d="M17.513 31.1076C18.4888 31.1076 19.2798 30.3165 19.2798 29.3407C19.2798 28.3649 18.4888 27.5739 17.513 27.5739C16.5372 27.5739 15.7461 28.3649 15.7461 29.3407C15.7461 30.3165 16.5372 31.1076 17.513 31.1076Z" fill="#FF9C29"/>
<path d="M14.0701 12.3686L13.8681 14.8422C13.8277 15.3168 14.2013 15.7105 14.6758 15.7105H30.1335C30.5575 15.7105 30.9109 15.3875 30.9412 14.9634C31.0725 13.1763 29.7094 11.7224 27.9224 11.7224H15.5138C15.4129 11.2782 15.211 10.8542 14.898 10.5008C14.3931 9.96567 13.6864 9.65268 12.9594 9.65268H11.2027C10.7887 9.65268 10.4454 9.99596 10.4454 10.4099C10.4454 10.8239 10.7887 11.1671 11.2027 11.1671H12.9594C13.2724 11.1671 13.5652 11.2984 13.7773 11.5205C13.9893 11.7527 14.0902 12.0556 14.0701 12.3686Z" fill="#FF9C29"/>
<path d="M29.8912 17.225H14.4033C13.9792 17.225 13.6359 17.5481 13.5955 17.962L13.2321 22.354C13.0907 24.0805 14.4436 25.5546 16.1701 25.5546H27.3974C28.9118 25.5546 30.2446 24.3127 30.3556 22.7982L30.6888 18.0832C30.7292 17.6188 30.3657 17.225 29.8912 17.225Z" fill="#FF9C29"/>
</svg>
