<svg width="62" height="63" viewBox="0 0 62 63" fill="none" xmlns="http://www.w3.org/2000/svg">
<mask id="mask0_185_1750" style="mask-type:alpha" maskUnits="userSpaceOnUse" x="0" y="0" width="62" height="63">
<rect x="0.5" y="0.125977" width="61" height="62" rx="17" fill="#D9D9D9"/>
</mask>
<g mask="url(#mask0_185_1750)">
<path d="M49.7193 23.908L38.7596 12.9484C33.9991 8.18785 28.3231 8.18785 23.5626 12.9484L12.616 23.8949C7.84246 28.6685 7.84246 34.3445 12.603 39.105L23.5495 50.0516C28.3101 54.8121 33.9861 54.8121 38.7466 50.0516L49.7062 39.092C54.4798 34.3445 54.4798 28.6685 49.7193 23.908ZM32.5474 38.9089C32.5474 39.6674 31.9197 40.2952 31.1611 40.2952C30.7688 40.2952 30.4287 40.1382 30.1803 39.8897C29.9318 39.6413 29.7748 39.3012 29.7748 38.9089L29.7748 32.8928L23.7588 32.8928C23.3664 32.8928 23.0264 32.7359 22.7779 32.4874C22.5294 32.2389 22.3725 31.8989 22.3725 31.5065C22.3725 30.748 23.0002 30.1202 23.7588 30.1202L29.7748 30.1202L29.7748 24.1042C29.7748 23.3456 30.4026 22.7179 31.1611 22.7179C31.9197 22.7179 32.5474 23.3456 32.5474 24.1042L32.5474 30.1202L38.5635 30.1202C39.322 30.1202 39.9498 30.748 39.9498 31.5065C39.9498 32.2651 39.322 32.8928 38.5635 32.8928H32.5474V38.9089Z" fill="#4C49ED"/>
<path d="M51.1606 40.4665V22.6809C51.1606 14.9554 46.5551 10.3499 38.8296 10.3499H21.0653C13.3186 10.3499 8.713 14.9554 8.713 22.6809V40.4452C8.713 48.1707 13.3186 52.7763 21.044 52.7763H38.8296C46.5551 52.7975 51.1606 48.1919 51.1606 40.4665ZM25.0553 38.7049C24.4398 39.3204 23.4211 39.3204 22.8056 38.7049C22.4873 38.3865 22.3387 37.9833 22.3387 37.58C22.3387 37.1768 22.4873 36.7735 22.8056 36.4552L27.6871 31.5737L22.8056 26.6922C22.4873 26.3738 22.3387 25.9706 22.3387 25.5673C22.3387 25.1641 22.4873 24.7608 22.8056 24.4425C23.4211 23.827 24.4398 23.827 25.0553 24.4425L29.9368 29.324L34.8183 24.4425C35.4338 23.827 36.4525 23.827 37.068 24.4425C37.6835 25.058 37.6835 26.0767 37.068 26.6922L32.1865 31.5737L37.068 36.4552C37.6835 37.0706 37.6835 38.0894 37.068 38.7049C36.4525 39.3204 35.4338 39.3204 34.8183 38.7049L29.9368 33.8234L25.0553 38.7049Z" fill="#4C49ED"/>
<path d="M43.9131 0.349854H18.0748C6.85148 0.349854 0.160645 7.04069 0.160645 18.264V44.0715C0.160645 55.3257 6.85148 62.0165 18.0748 62.0165H43.8823C55.1056 62.0165 61.7965 55.3257 61.7965 44.1024V18.264C61.8273 7.04069 55.1365 0.349854 43.9131 0.349854ZM41.354 38.2749C42.2481 39.169 42.2481 40.649 41.354 41.5432C40.8915 42.0057 40.3056 42.2215 39.7198 42.2215C39.134 42.2215 38.5481 42.0057 38.0856 41.5432L30.994 34.4515L23.9023 41.5432C23.4398 42.0057 22.854 42.2215 22.2681 42.2215C21.6823 42.2215 21.0965 42.0057 20.634 41.5432C19.7398 40.649 19.7398 39.169 20.634 38.2749L27.7256 31.1832L20.634 24.0915C19.7398 23.1974 19.7398 21.7174 20.634 20.8232C21.5281 19.929 23.0081 19.929 23.9023 20.8232L30.994 27.9149L38.0856 20.8232C38.9798 19.929 40.4598 19.929 41.354 20.8232C42.2481 21.7174 42.2481 23.1974 41.354 24.0915L34.2623 31.1832L41.354 38.2749Z" fill="#4C49ED"/>
<path d="M52.4563 22.6455L39.88 10.0692C34.4173 4.60648 27.904 4.60648 22.4413 10.0692L9.87999 22.6305C4.40225 28.1082 4.40225 34.6215 9.86499 40.0842L22.4263 52.6455C27.889 58.1083 34.4023 58.1083 39.865 52.6455L52.4413 40.0692C57.919 34.6215 57.919 28.1082 52.4563 22.6455ZM32.7514 39.8591C32.7514 40.7296 32.0311 41.4499 31.1606 41.4499C30.7104 41.4499 30.3202 41.2698 30.0351 40.9847C29.7499 40.6995 29.5698 40.3093 29.5698 39.8591L29.5698 32.9557L22.6664 32.9557C22.2162 32.9557 21.826 32.7756 21.5408 32.4904C21.2557 32.2053 21.0756 31.8151 21.0756 31.3649C21.0756 30.4944 21.796 29.7741 22.6664 29.7741L29.5698 29.7741L29.5698 22.8706C29.5698 22.0002 30.2902 21.2798 31.1606 21.2798C32.0311 21.2798 32.7514 22.0002 32.7514 22.8706L32.7514 29.7741H39.6549C40.5253 29.7741 41.2457 30.4944 41.2457 31.3649C41.2457 32.2353 40.5253 32.9557 39.6549 32.9557H32.7514V39.8591Z" fill="#4C49ED"/>
<path d="M43.9131 0.349854H18.0748C6.85148 0.349854 0.160645 7.04069 0.160645 18.264V44.0715C0.160645 55.3257 6.85148 62.0165 18.0748 62.0165H43.8823C55.1056 62.0165 61.7965 55.3257 61.7965 44.1024V18.264C61.8273 7.04069 55.1365 0.349854 43.9131 0.349854ZM41.354 38.2749C42.2481 39.169 42.2481 40.649 41.354 41.5432C40.8915 42.0057 40.3056 42.2215 39.7198 42.2215C39.134 42.2215 38.5481 42.0057 38.0856 41.5432L30.994 34.4515L23.9023 41.5432C23.4398 42.0057 22.854 42.2215 22.2681 42.2215C21.6823 42.2215 21.0965 42.0057 20.634 41.5432C19.7398 40.649 19.7398 39.169 20.634 38.2749L27.7256 31.1832L20.634 24.0915C19.7398 23.1974 19.7398 21.7174 20.634 20.8232C21.5281 19.929 23.0081 19.929 23.9023 20.8232L30.994 27.9149L38.0856 20.8232C38.9798 19.929 40.4598 19.929 41.354 20.8232C42.2481 21.7174 42.2481 23.1974 41.354 24.0915L34.2623 31.1832L41.354 38.2749Z" fill="#4C49ED"/>
<path d="M52.4563 22.6455L39.88 10.0692C34.4173 4.60648 27.904 4.60648 22.4413 10.0692L9.87999 22.6305C4.40225 28.1082 4.40225 34.6215 9.86499 40.0842L22.4263 52.6455C27.889 58.1083 34.4023 58.1083 39.865 52.6455L52.4413 40.0692C57.919 34.6215 57.919 28.1082 52.4563 22.6455ZM32.7514 39.8591C32.7514 40.7296 32.0311 41.4499 31.1606 41.4499C30.7104 41.4499 30.3202 41.2698 30.0351 40.9847C29.7499 40.6995 29.5698 40.3093 29.5698 39.8591L29.5698 32.9557L22.6664 32.9557C22.2162 32.9557 21.826 32.7756 21.5408 32.4904C21.2557 32.2053 21.0756 31.8151 21.0756 31.3649C21.0756 30.4944 21.796 29.7741 22.6664 29.7741L29.5698 29.7741L29.5698 22.8706C29.5698 22.0002 30.2902 21.2798 31.1606 21.2798C32.0311 21.2798 32.7514 22.0002 32.7514 22.8706L32.7514 29.7741H39.6549C40.5253 29.7741 41.2457 30.4944 41.2457 31.3649C41.2457 32.2353 40.5253 32.9557 39.6549 32.9557H32.7514V39.8591Z" fill="#4C49ED"/>
<path opacity="0.4" d="M44.6895 42.0978H22.1895C21.677 42.0978 21.252 41.6728 21.252 41.1603C21.252 40.6478 21.677 40.2228 22.1895 40.2228H44.6895C45.202 40.2228 45.627 40.6478 45.627 41.1603C45.627 41.6728 45.202 42.0978 44.6895 42.0978Z" fill="white"/>
<path opacity="0.4" d="M42.2147 18.9479C39.7897 16.5229 37.4147 16.4604 34.9272 18.9479L33.4147 20.4604C33.2897 20.5854 33.2397 20.7854 33.2897 20.9604C34.2397 24.2729 36.8897 26.9229 40.2022 27.8729C40.2522 27.8854 40.3022 27.8979 40.3522 27.8979C40.4897 27.8979 40.6147 27.8479 40.7147 27.7479L42.2147 26.2354C43.4522 25.0104 44.0522 23.8229 44.0522 22.6229C44.0647 21.3854 43.4647 20.1854 42.2147 18.9479Z" fill="white"/>
<path d="M37.9519 29.0104C37.5894 28.8354 37.2394 28.6604 36.9019 28.4604C36.6269 28.2979 36.3644 28.1229 36.1019 27.9354C35.8894 27.7979 35.6394 27.5979 35.4019 27.3979C35.3769 27.3854 35.2894 27.3104 35.1894 27.2104C34.7769 26.8604 34.3144 26.4104 33.9019 25.9104C33.8644 25.8854 33.8019 25.7979 33.7144 25.6854C33.5894 25.5354 33.3769 25.2854 33.1894 24.9979C33.0394 24.8104 32.8644 24.5354 32.7019 24.2604C32.5019 23.9229 32.3269 23.5854 32.1519 23.2354C31.9769 22.8604 31.8394 22.4979 31.7144 22.1604L23.8644 30.0104C23.7019 30.1729 23.5519 30.4854 23.5144 30.6979L22.8394 35.4854C22.7144 36.3354 22.9519 37.1354 23.4769 37.6729C23.9269 38.1104 24.5519 38.3479 25.2269 38.3479C25.3769 38.3479 25.5269 38.3354 25.6769 38.3104L30.4769 37.6354C30.7019 37.5979 31.0144 37.4479 31.1644 37.2854L39.0144 29.4354C38.6644 29.3104 38.3269 29.1729 37.9519 29.0104Z" fill="white"/>
</g>
</svg>
