<svg width="14" height="16" viewBox="0 0 14 16" fill="none" xmlns="http://www.w3.org/2000/svg">
<path fill-rule="evenodd" clip-rule="evenodd" d="M0.858563 11.4243C1.21233 11.4243 1.49911 11.7059 1.49911 12.0532V13.7304C1.49911 13.8462 1.5947 13.9401 1.71262 13.9401H11.9613C12.0793 13.9401 12.1749 13.8462 12.1749 13.7304V12.0532C12.1749 11.7059 12.4616 11.4243 12.8154 11.4243C13.1692 11.4243 13.456 11.7059 13.456 12.0532V13.7304C13.456 14.5409 12.7868 15.198 11.9613 15.198H1.71262C0.887176 15.198 0.218018 14.5409 0.218018 13.7304V12.0532C0.218018 11.7059 0.5048 11.4243 0.858563 11.4243Z" fill="#00C67F"/>
<path d="M5.75912 0.941742C5.3198 0.941742 4.95333 1.27142 4.91496 1.70114C4.78375 3.17097 4.7606 4.64802 4.84564 6.12082C4.6347 6.13226 4.42384 6.14553 4.21308 6.16061L2.94095 6.25167C2.45047 6.28677 2.17628 6.82378 2.44108 7.23069C3.34812 8.62452 4.51687 9.83624 5.88503 10.8013L6.39468 11.1607C6.65902 11.3472 7.01505 11.3472 7.27938 11.1607L7.78903 10.8013C9.15719 9.83624 10.3259 8.62452 11.233 7.23069C11.4978 6.82378 11.2236 6.28677 10.7331 6.25167L9.46098 6.16061C9.25022 6.14553 9.03936 6.13226 8.82842 6.12082C8.91346 4.64802 8.89032 3.17096 8.7591 1.70113C8.72073 1.27141 8.35427 0.941742 7.91495 0.941742H5.75912Z" fill="#00C67F"/>
</svg>
