<svg width="222" height="77" viewBox="0 0 222 77" fill="none" xmlns="http://www.w3.org/2000/svg">
<rect x="0.5" width="221" height="77" rx="9" fill="white"/>
<path d="M50.25 44.125C50.25 45.015 49.9861 45.885 49.4916 46.6251C48.9971 47.3651 48.2943 47.9419 47.4721 48.2825C46.6498 48.6231 45.745 48.7122 44.8721 48.5385C43.9992 48.3649 43.1974 47.9363 42.568 47.307C41.9387 46.6776 41.5101 45.8758 41.3365 45.0029C41.1628 44.13 41.2519 43.2252 41.5925 42.4029C41.9331 41.5807 42.5099 40.8779 43.2499 40.3834C43.99 39.8889 44.86 39.625 45.75 39.625C46.9435 39.625 48.0881 40.0991 48.932 40.943C49.7759 41.7869 50.25 42.9315 50.25 44.125ZM49.125 28.375H30C29.4033 28.375 28.831 28.6121 28.409 29.034C27.9871 29.456 27.75 30.0283 27.75 30.625V46.375C27.75 46.9717 27.9871 47.544 28.409 47.966C28.831 48.3879 29.4033 48.625 30 48.625H40.7325C39.5753 47.3425 38.9547 45.6646 38.999 43.9377C39.0433 42.2109 39.749 40.567 40.9705 39.3455C42.192 38.124 43.8359 37.4183 45.5627 37.374C47.2896 37.3297 48.9675 37.9503 50.25 39.1075V34C50.25 33.7016 50.1315 33.4155 49.9205 33.2045C49.7095 32.9935 49.4234 32.875 49.125 32.875H31.125C30.8266 32.875 30.5405 32.7565 30.3295 32.5455C30.1185 32.3345 30 32.0484 30 31.75C30 31.4516 30.1185 31.1655 30.3295 30.9545C30.5405 30.7435 30.8266 30.625 31.125 30.625H50.25V29.5C50.25 29.2016 50.1315 28.9155 49.9205 28.7045C49.7095 28.4935 49.4234 28.375 49.125 28.375Z" fill="#4C49ED"/>
<path d="M60.928 46.5V31.695H64.288L69.139 42.552H68.446L73.276 31.695H76.657V46.5H73.15V37.428H74.053L69.853 46.5H67.669L63.448 37.428H64.414V46.5H60.928ZM84.8426 46.731C82.9106 46.731 81.4056 46.234 80.3276 45.24C79.2636 44.246 78.7316 42.881 78.7316 41.145C78.7316 40.067 78.9556 39.108 79.4036 38.268C79.8516 37.428 80.4816 36.777 81.2936 36.315C82.1056 35.839 83.0576 35.601 84.1496 35.601C85.2276 35.601 86.1236 35.839 86.8376 36.315C87.5656 36.777 88.1116 37.421 88.4756 38.247C88.8396 39.059 89.0216 40.004 89.0216 41.082V41.88H81.8606V40.116H86.2706L85.9136 40.41C85.9136 39.612 85.7596 39.024 85.4516 38.646C85.1576 38.254 84.7376 38.058 84.1916 38.058C83.5616 38.058 83.0786 38.296 82.7426 38.772C82.4206 39.234 82.2596 39.934 82.2596 40.872V41.25C82.2596 42.188 82.4906 42.874 82.9526 43.308C83.4146 43.742 84.0796 43.959 84.9476 43.959C85.5076 43.959 86.0326 43.896 86.5226 43.77C87.0266 43.644 87.5026 43.441 87.9506 43.161L88.9166 45.597C88.3846 45.961 87.7686 46.241 87.0686 46.437C86.3686 46.633 85.6266 46.731 84.8426 46.731ZM95.0015 46.731C94.0775 46.731 93.2655 46.514 92.5655 46.08C91.8655 45.632 91.3125 44.988 90.9065 44.148C90.5145 43.308 90.3185 42.314 90.3185 41.166C90.3185 40.004 90.5145 39.01 90.9065 38.184C91.3125 37.344 91.8655 36.707 92.5655 36.273C93.2655 35.825 94.0775 35.601 95.0015 35.601C95.8275 35.601 96.5695 35.797 97.2275 36.189C97.8995 36.581 98.3405 37.092 98.5505 37.722H98.3405L98.5715 35.832H102.162C102.12 36.308 102.078 36.791 102.036 37.281C102.008 37.771 101.994 38.254 101.994 38.73V46.5H98.2985L98.2565 44.694H98.5085C98.2985 45.31 97.8575 45.807 97.1855 46.185C96.5275 46.549 95.7995 46.731 95.0015 46.731ZM96.1985 43.959C96.8285 43.959 97.3395 43.742 97.7315 43.308C98.1235 42.86 98.3195 42.146 98.3195 41.166C98.3195 40.186 98.1235 39.479 97.7315 39.045C97.3395 38.597 96.8285 38.373 96.1985 38.373C95.5685 38.373 95.0575 38.597 94.6655 39.045C94.2735 39.479 94.0775 40.186 94.0775 41.166C94.0775 42.146 94.2665 42.86 94.6445 43.308C95.0365 43.742 95.5545 43.959 96.1985 43.959ZM104.316 46.5V31.044H108.054V46.5H104.316ZM116.646 46.5V31.695H123.912C125.62 31.695 126.908 32.115 127.776 32.955C128.644 33.781 129.078 34.908 129.078 36.336C129.078 37.75 128.644 38.877 127.776 39.717C126.908 40.557 125.62 40.977 123.912 40.977H120.531V46.5H116.646ZM120.531 37.995H123.408C124.066 37.995 124.556 37.855 124.878 37.575C125.2 37.281 125.361 36.868 125.361 36.336C125.361 35.804 125.2 35.391 124.878 35.097C124.556 34.803 124.066 34.656 123.408 34.656H120.531V37.995ZM130.792 46.5V31.044H134.53V46.5H130.792ZM141.042 46.731C140.118 46.731 139.306 46.514 138.606 46.08C137.906 45.632 137.353 44.988 136.947 44.148C136.555 43.308 136.359 42.314 136.359 41.166C136.359 40.004 136.555 39.01 136.947 38.184C137.353 37.344 137.906 36.707 138.606 36.273C139.306 35.825 140.118 35.601 141.042 35.601C141.868 35.601 142.61 35.797 143.268 36.189C143.94 36.581 144.381 37.092 144.591 37.722H144.381L144.612 35.832H148.203C148.161 36.308 148.119 36.791 148.077 37.281C148.049 37.771 148.035 38.254 148.035 38.73V46.5H144.339L144.297 44.694H144.549C144.339 45.31 143.898 45.807 143.226 46.185C142.568 46.549 141.84 46.731 141.042 46.731ZM142.239 43.959C142.869 43.959 143.38 43.742 143.772 43.308C144.164 42.86 144.36 42.146 144.36 41.166C144.36 40.186 144.164 39.479 143.772 39.045C143.38 38.597 142.869 38.373 142.239 38.373C141.609 38.373 141.098 38.597 140.706 39.045C140.314 39.479 140.118 40.186 140.118 41.166C140.118 42.146 140.307 42.86 140.685 43.308C141.077 43.742 141.595 43.959 142.239 43.959ZM150.356 46.5V38.73C150.356 38.254 150.342 37.771 150.314 37.281C150.286 36.791 150.244 36.308 150.188 35.832H153.8L154.01 37.68H153.779C154.129 37.008 154.626 36.497 155.27 36.147C155.914 35.783 156.642 35.601 157.454 35.601C158.7 35.601 159.631 35.972 160.247 36.714C160.877 37.442 161.192 38.583 161.192 40.137V46.5H157.454V40.305C157.454 39.619 157.335 39.143 157.097 38.877C156.859 38.597 156.516 38.457 156.068 38.457C155.48 38.457 155.004 38.653 154.64 39.045C154.276 39.423 154.094 39.927 154.094 40.557V46.5H150.356ZM163.44 46.5V38.73C163.44 38.254 163.426 37.771 163.398 37.281C163.37 36.791 163.328 36.308 163.272 35.832H166.884L167.094 37.68H166.863C167.213 37.008 167.71 36.497 168.354 36.147C168.998 35.783 169.726 35.601 170.538 35.601C171.784 35.601 172.715 35.972 173.331 36.714C173.961 37.442 174.276 38.583 174.276 40.137V46.5H170.538V40.305C170.538 39.619 170.419 39.143 170.181 38.877C169.943 38.597 169.6 38.457 169.152 38.457C168.564 38.457 168.088 38.653 167.724 39.045C167.36 39.423 167.178 39.927 167.178 40.557V46.5H163.44ZM182.152 46.731C180.22 46.731 178.715 46.234 177.637 45.24C176.573 44.246 176.041 42.881 176.041 41.145C176.041 40.067 176.265 39.108 176.713 38.268C177.161 37.428 177.791 36.777 178.603 36.315C179.415 35.839 180.367 35.601 181.459 35.601C182.537 35.601 183.433 35.839 184.147 36.315C184.875 36.777 185.421 37.421 185.785 38.247C186.149 39.059 186.331 40.004 186.331 41.082V41.88H179.17V40.116H183.58L183.223 40.41C183.223 39.612 183.069 39.024 182.761 38.646C182.467 38.254 182.047 38.058 181.501 38.058C180.871 38.058 180.388 38.296 180.052 38.772C179.73 39.234 179.569 39.934 179.569 40.872V41.25C179.569 42.188 179.8 42.874 180.262 43.308C180.724 43.742 181.389 43.959 182.257 43.959C182.817 43.959 183.342 43.896 183.832 43.77C184.336 43.644 184.812 43.441 185.26 43.161L186.226 45.597C185.694 45.961 185.078 46.241 184.378 46.437C183.678 46.633 182.936 46.731 182.152 46.731ZM188.111 46.5V38.751C188.111 38.261 188.097 37.771 188.069 37.281C188.041 36.791 187.999 36.308 187.943 35.832H191.555L191.954 39.108H191.387C191.527 38.31 191.751 37.652 192.059 37.134C192.367 36.616 192.752 36.231 193.214 35.979C193.676 35.727 194.222 35.601 194.852 35.601C195.146 35.601 195.363 35.615 195.503 35.643C195.657 35.657 195.818 35.699 195.986 35.769V39.045C195.636 38.891 195.356 38.793 195.146 38.751C194.936 38.709 194.663 38.688 194.327 38.688C193.753 38.688 193.284 38.793 192.92 39.003C192.556 39.199 192.29 39.507 192.122 39.927C191.968 40.347 191.891 40.886 191.891 41.544V46.5H188.111Z" fill="black"/>
</svg>
