<svg width="24" height="25" viewBox="0 0 24 25" fill="none" xmlns="http://www.w3.org/2000/svg">
<path d="M16 2.79999H8C4 2.79999 2 4.79999 2 8.79999V21.8C2 22.35 2.45 22.8 3 22.8H16C20 22.8 22 20.8 22 16.8V8.79999C22 4.79999 20 2.79999 16 2.79999ZM15.5 13.55H12.75V16.3C12.75 16.71 12.41 17.05 12 17.05C11.59 17.05 11.25 16.71 11.25 16.3V13.55H8.5C8.09 13.55 7.75 13.21 7.75 12.8C7.75 12.39 8.09 12.05 8.5 12.05H11.25V9.29999C11.25 8.88999 11.59 8.54999 12 8.54999C12.41 8.54999 12.75 8.88999 12.75 9.29999V12.05H15.5C15.91 12.05 16.25 12.39 16.25 12.8C16.25 13.21 15.91 13.55 15.5 13.55Z" fill="#4C49ED"/>
</svg>
