<svg width="20" height="19" viewBox="0 0 20 19" fill="none" xmlns="http://www.w3.org/2000/svg">
<path d="M2.46012 7.45799C2.147 7.45799 1.88733 7.19832 1.88733 6.88519V4.97588C1.88733 2.76107 3.68972 0.966309 5.8969 0.966309H7.80621C8.11934 0.966309 8.37901 1.22598 8.37901 1.5391C8.37901 1.85223 8.11934 2.1119 7.80621 2.1119H5.8969C4.31598 2.1119 3.03292 3.39496 3.03292 4.97588V6.88519C3.03292 7.19832 2.77325 7.45799 2.46012 7.45799Z" fill="#4C49ED"/>
<path d="M17.7346 7.45799C17.4214 7.45799 17.1618 7.19832 17.1618 6.88519V4.97588C17.1618 3.39496 15.8787 2.1119 14.2978 2.1119H12.3885C12.0753 2.1119 11.8157 1.85223 11.8157 1.5391C11.8157 1.22598 12.0753 0.966309 12.3885 0.966309H14.2978C16.505 0.966309 18.3074 2.76107 18.3074 4.97588V6.88519C18.3074 7.19832 18.0477 7.45799 17.7346 7.45799Z" fill="#4C49ED"/>
<path d="M14.2979 17.3865H13.1523C12.8391 17.3865 12.5795 17.1268 12.5795 16.8137C12.5795 16.5005 12.8391 16.2409 13.1523 16.2409H14.2979C15.8788 16.2409 17.1618 14.9578 17.1618 13.3769V12.2313C17.1618 11.9182 17.4215 11.6585 17.7346 11.6585C18.0478 11.6585 18.3074 11.9182 18.3074 12.2313V13.3769C18.3074 15.5917 16.505 17.3865 14.2979 17.3865Z" fill="#4C49ED"/>
<path d="M7.80621 17.3865H5.8969C3.68972 17.3865 1.88733 15.5917 1.88733 13.3769V11.4676C1.88733 11.1544 2.147 10.8948 2.46012 10.8948C2.77325 10.8948 3.03292 11.1544 3.03292 11.4676V13.3769C3.03292 14.9578 4.31598 16.2409 5.8969 16.2409H7.80621C8.11934 16.2409 8.37901 16.5005 8.37901 16.8137C8.37901 17.1268 8.11934 17.3865 7.80621 17.3865Z" fill="#4C49ED"/>
<path d="M7.80612 4.02124H6.27866C5.40801 4.02124 4.94214 4.47948 4.94214 5.35776V6.88522C4.94214 7.7635 5.40801 8.22174 6.27866 8.22174H7.80612C8.67676 8.22174 9.14264 7.7635 9.14264 6.88522V5.35776C9.14264 4.47948 8.67676 4.02124 7.80612 4.02124Z" fill="#4C49ED"/>
<path d="M13.916 4.02124H12.3885C11.5179 4.02124 11.052 4.47948 11.052 5.35776V6.88522C11.052 7.7635 11.5179 8.22174 12.3885 8.22174H13.916C14.7866 8.22174 15.2525 7.7635 15.2525 6.88522V5.35776C15.2525 4.47948 14.7866 4.02124 13.916 4.02124Z" fill="#4C49ED"/>
<path d="M7.80612 10.131H6.27866C5.40801 10.131 4.94214 10.5893 4.94214 11.4676V12.995C4.94214 13.8733 5.40801 14.3315 6.27866 14.3315H7.80612C8.67676 14.3315 9.14264 13.8733 9.14264 12.995V11.4676C9.14264 10.5893 8.67676 10.131 7.80612 10.131Z" fill="#4C49ED"/>
<path d="M13.916 10.131H12.3885C11.5179 10.131 11.052 10.5893 11.052 11.4676V12.995C11.052 13.8733 11.5179 14.3315 12.3885 14.3315H13.916C14.7866 14.3315 15.2525 13.8733 15.2525 12.995V11.4676C15.2525 10.5893 14.7866 10.131 13.916 10.131Z" fill="#4C49ED"/>
</svg>
