<svg width="38" height="38" viewBox="0 0 38 38" fill="none" xmlns="http://www.w3.org/2000/svg">
<path d="M34.1948 26.5974C34.1948 27.7995 33.8383 28.9746 33.1705 29.9741C32.5026 30.9736 31.5534 31.7526 30.4428 32.2127C29.3322 32.6727 28.1101 32.7931 26.9311 32.5585C25.7521 32.324 24.6691 31.7452 23.8191 30.8951C22.9691 30.0451 22.3903 28.9621 22.1557 27.7831C21.9212 26.6041 22.0416 25.3821 22.5016 24.2715C22.9616 23.1609 23.7407 22.2116 24.7402 21.5438C25.7397 20.8759 26.9148 20.5195 28.1169 20.5195C29.7288 20.5195 31.2748 21.1598 32.4146 22.2997C33.5544 23.4395 34.1948 24.9854 34.1948 26.5974ZM32.6753 5.32468H6.84415C6.03817 5.32468 5.2652 5.64485 4.69528 6.21477C4.12537 6.78468 3.80519 7.55765 3.80519 8.36364V29.6364C3.80519 30.4423 4.12537 31.2153 4.69528 31.7852C5.2652 32.3551 6.03817 32.6753 6.84415 32.6753H21.34C19.777 30.9431 18.9388 28.6769 18.9986 26.3445C19.0585 24.0121 20.0117 21.7918 21.6615 20.142C23.3112 18.4922 25.5316 17.539 27.864 17.4792C30.1963 17.4193 32.4626 18.2575 34.1948 19.8205V12.9221C34.1948 12.5191 34.0347 12.1326 33.7498 11.8476C33.4648 11.5627 33.0783 11.4026 32.6753 11.4026H8.36363C7.96064 11.4026 7.57416 11.2425 7.2892 10.9576C7.00424 10.6726 6.84415 10.2861 6.84415 9.88312C6.84415 9.48013 7.00424 9.09364 7.2892 8.80868C7.57416 8.52372 7.96064 8.36364 8.36363 8.36364H34.1948V6.84416C34.1948 6.44117 34.0347 6.05468 33.7498 5.76972C33.4648 5.48476 33.0783 5.32468 32.6753 5.32468Z" fill="#4C49ED"/>
</svg>
