<svg width="23" height="23" viewBox="0 0 23 23" fill="none" xmlns="http://www.w3.org/2000/svg">
<g clip-path="url(#clip0_14_1162)">
<path opacity="0.3" d="M21.05 21H3.95C3.38 21 3 20.6222 3 20.0556V4.94444C3 4.37778 3.38 4 3.95 4H21.05C21.62 4 22 4.37778 22 4.94444V20.0556C22 20.6222 21.62 21 21.05 21Z" fill="#7E8299"/>
<path d="M6.92857 6C6.37143 6 6 5.6 6 5V3C6 2.4 6.37143 2 6.92857 2C7.48571 2 7.85714 2.4 7.85714 3V5C7.85714 5.6 7.48571 6 6.92857 6ZM11.5714 5V3C11.5714 2.4 11.2 2 10.6429 2C10.0857 2 9.71429 2.4 9.71429 3V5C9.71429 5.6 10.0857 6 10.6429 6C11.2 6 11.5714 5.6 11.5714 5ZM15.2857 5V3C15.2857 2.4 14.9143 2 14.3571 2C13.8 2 13.4286 2.4 13.4286 3V5C13.4286 5.6 13.8 6 14.3571 6C14.9143 6 15.2857 5.6 15.2857 5ZM19 5V3C19 2.4 18.6286 2 18.0714 2C17.5143 2 17.1429 2.4 17.1429 3V5C17.1429 5.6 17.5143 6 18.0714 6C18.6286 6 19 5.6 19 5Z" fill="#7E8299"/>
<path d="M9.47706 12.5393C9.84403 12.5393 10.1193 12.4382 10.3027 12.2359C10.4862 12.0337 10.6697 11.7303 10.6697 11.3258C10.6697 11.0224 10.578 10.7191 10.3945 10.5168C10.211 10.3146 9.93577 10.2134 9.66054 10.2134C9.47706 10.2134 9.29356 10.2134 9.11008 10.3146C8.92659 10.4157 8.83485 10.5168 8.74311 10.6179C8.65137 10.7191 8.55963 10.8202 8.46788 11.0224C8.37614 11.2247 8.2844 11.3258 8.2844 11.5281C8.2844 11.6292 8.19265 11.6292 8.10091 11.7303C8.00917 11.8314 7.91741 11.8314 7.73393 11.8314C7.55044 11.8314 7.45871 11.7303 7.36696 11.6292C7.27522 11.5281 7.18348 11.3258 7.18348 11.1236C7.18348 10.9213 7.27522 10.7191 7.36696 10.5168C7.45871 10.3146 7.64219 10.1123 7.82568 9.91008C8.00917 9.70783 8.28439 9.50558 8.65136 9.40446C9.01833 9.30336 9.29358 9.20224 9.7523 9.20224C10.1193 9.20224 10.3945 9.30336 10.6697 9.40446C10.9449 9.50558 11.2202 9.70783 11.4037 9.80895C11.5872 9.91008 11.7706 10.2134 11.8624 10.5168C11.9541 10.8202 12.0459 11.0224 12.0459 11.3258C12.0459 11.7303 11.9541 12.0337 11.7706 12.3371C11.5872 12.6404 11.4037 12.9438 11.1284 13.146C11.4037 13.3483 11.6789 13.5505 11.8624 13.7528C12.0459 13.955 12.2294 14.1573 12.3211 14.4607C12.4128 14.764 12.5046 14.9663 12.5046 15.2697C12.5046 15.6741 12.4128 15.9775 12.3211 16.2809C12.2294 16.5843 11.9541 16.8876 11.7706 17.191C11.5872 17.4944 11.2202 17.6966 10.8532 17.7978C10.4862 17.8989 10.1193 18 9.66054 18C9.20183 18 8.83485 17.8989 8.46788 17.6966C8.10091 17.4944 7.82568 17.2921 7.64219 17.0899C7.45871 16.8876 7.27522 16.5843 7.18348 16.2809C7.09173 15.9775 7 15.7753 7 15.573C7 15.3708 7.09173 15.1685 7.18348 15.0674C7.27522 14.9663 7.45871 14.8652 7.64219 14.8652C7.73394 14.8652 7.82569 14.8652 7.91743 14.9663C8.00918 15.0674 8.10091 15.0674 8.10091 15.1685C8.2844 15.6741 8.46788 16.0786 8.74311 16.382C9.01834 16.6854 9.29357 16.7865 9.66054 16.7865C9.84403 16.7865 10.1193 16.6854 10.3027 16.5843C10.4862 16.4831 10.6697 16.2809 10.8532 16.0786C11.0367 15.8764 11.0367 15.573 11.0367 15.2697C11.0367 14.764 10.9449 14.4607 10.6697 14.1573C10.3945 13.8539 10.1193 13.7528 9.7523 13.7528C9.66055 13.7528 9.5688 13.7528 9.38531 13.7528C9.20183 13.7528 9.11008 13.7528 9.11008 13.7528C8.92659 13.7528 8.7431 13.6517 8.65136 13.5505C8.55962 13.4494 8.46788 13.2472 8.46788 13.146C8.46788 12.9438 8.55962 12.8427 8.65136 12.6404C8.7431 12.4382 8.9266 12.4382 9.20183 12.4382H9.47706V12.5393ZM15.4404 16.9888V11.6292C14.5229 12.4382 13.8807 12.7415 13.6055 12.7415C13.422 12.7415 13.3303 12.6404 13.2385 12.5393C13.1468 12.4382 13.055 12.2359 13.055 12.0337C13.055 11.8314 13.1468 11.7303 13.2385 11.6292C13.3303 11.5281 13.5138 11.4269 13.8807 11.2247C14.3394 11.0224 14.7064 10.7191 14.8899 10.5168C15.0734 10.3146 15.3486 10.0112 15.6239 9.70783C15.8991 9.40446 15.9908 9.20224 15.9908 9.10111C15.9908 8.99999 16.1743 9 16.3578 9C16.5413 9 16.7248 9.10111 16.8165 9.20224C16.9083 9.30336 17 9.6067 17 9.91008V16.6854C17 17.4944 16.7248 17.8989 16.2661 17.8989C16.0826 17.8989 15.8991 17.7978 15.7156 17.6966C15.5321 17.5955 15.4404 17.2921 15.4404 16.9888Z" fill="#7E8299"/>
</g>
<defs>
<clipPath id="clip0_14_1162">
<rect width="23" height="23" fill="white"/>
</clipPath>
</defs>
</svg>
