<svg width="62" height="64" viewBox="0 0 62 64" fill="none" xmlns="http://www.w3.org/2000/svg">
<path d="M44.0109 0.625977H18.02C6.73035 0.625977 0 7.46148 0 18.9275V45.293C0 56.7905 6.73035 63.626 18.02 63.626H43.9799C55.2695 63.626 61.9999 56.7905 61.9999 45.3245V18.9275C62.0309 7.46148 55.3006 0.625977 44.0109 0.625977ZM45.8408 24.881L28.2551 42.7415C27.8209 43.1825 27.2316 43.4345 26.6113 43.4345C25.991 43.4345 25.4017 43.1825 24.9674 42.7415L16.1901 33.827C15.2906 32.9135 15.2906 31.4015 16.1901 30.488C17.0895 29.5745 18.5783 29.5745 19.4777 30.488L26.6113 37.733L42.5532 21.542C43.4527 20.6285 44.9414 20.6285 45.8408 21.542C46.7403 22.4555 46.7403 23.936 45.8408 24.881Z" fill="#4C49ED"/>
</svg>
